<?xml version="1.0" standalone="no"?>
<!DOCTYPE svg PUBLIC "-//W3C//DTD SVG 20010904//EN"
 "http://www.w3.org/TR/2001/REC-SVG-20010904/DTD/svg10.dtd">
<svg version="1.0" xmlns="http://www.w3.org/2000/svg"
 width="200.000000pt" height="200.000000pt" viewBox="0 0 200.000000 200.000000"
 preserveAspectRatio="xMidYMid meet">
<metadata>
Created by potrace 1.11, written by Peter Selinger 2001-2013
</metadata>
<g transform="translate(0.000000,200.000000) scale(0.100000,-0.100000)"
fill="#000000" stroke="none">
<path d="M1091 1599 c-104 -142 -42 -345 134 -437 44 -24 62 -27 145 -27 86 0
99 3 143 28 46 27 107 97 107 122 0 7 -16 -3 -35 -21 -120 -113 -371 -35 -454
140 -31 67 -38 140 -17 190 22 54 13 56 -23 5z"/>
<path d="M797 1512 c-81 -119 -102 -216 -73 -344 28 -127 110 -241 230 -319
83 -55 168 -79 275 -79 148 0 249 38 337 126 36 36 94 128 94 150 0 4 -22 -14
-49 -39 -225 -211 -608 -116 -756 187 -56 116 -63 226 -20 334 10 24 15 45 13
47 -3 3 -25 -26 -51 -63z"/>
<path d="M455 1394 c-101 -129 -132 -228 -122 -383 17 -260 206 -504 474 -613
71 -28 91 -32 213 -36 157 -5 222 7 339 65 52 25 94 56 140 102 63 63 140 176
129 187 -3 3 -29 -17 -57 -45 -93 -91 -230 -141 -386 -141 -214 1 -388 79
-543 245 -163 174 -223 415 -152 613 12 35 20 65 19 67 -2 1 -26 -26 -54 -61z"/>
</g>
</svg>
